<svg xmlns="http://www.w3.org/2000/svg" xmlns:xlink="http://www.w3.org/1999/xlink" width="500" zoomAndPan="magnify" viewBox="0 0 375 374.999991" height="500" preserveAspectRatio="xMidYMid meet" version="1.0"><defs><g/><clipPath id="f5ff1ade28"><path d="M 105.460938 106.035156 L 327.460938 106.035156 L 327.460938 217.785156 L 105.460938 217.785156 Z M 105.460938 106.035156 " clip-rule="nonzero"/></clipPath><clipPath id="d7e2db0e42"><path d="M 0.460938 0.09375 L 222.34375 0.09375 L 222.34375 111.785156 L 0.460938 111.785156 Z M 0.460938 0.09375 " clip-rule="nonzero"/></clipPath><clipPath id="a6e08763f4"><rect x="0" width="223" y="0" height="112"/></clipPath></defs><g clip-path="url(#f5ff1ade28)"><g transform="matrix(1, 0, 0, 1, 105, 106)"><g clip-path="url(#a6e08763f4)"><path fill="#bca662" d="M 79.839844 53.902344 L 70.617188 53.902344 L 70.617188 44.675781 L 79.839844 44.675781 L 79.839844 53.902344 " fill-opacity="1" fill-rule="nonzero"/><path fill="#bca662" d="M 93.367188 53.902344 L 84.144531 53.902344 L 84.144531 44.675781 L 93.367188 44.675781 L 93.367188 53.902344 " fill-opacity="1" fill-rule="nonzero"/><path fill="#bca662" d="M 79.839844 58.207031 L 79.839844 67.429688 L 70.617188 67.429688 L 70.617188 58.207031 L 79.839844 58.207031 " fill-opacity="1" fill-rule="nonzero"/><path fill="#bca662" d="M 93.367188 58.207031 L 93.367188 67.429688 L 84.144531 67.429688 L 84.144531 58.207031 L 93.367188 58.207031 " fill-opacity="1" fill-rule="nonzero"/><g clip-path="url(#d7e2db0e42)"><path fill="#bca662" d="M 33.613281 38.679688 L 33.613281 14.757812 L 45.257812 14.757812 L 45.257812 29.390625 L 81.992188 0.0898438 L 222.34375 112.015625 L 192.277344 112.015625 L 81.992188 13.117188 L 23.992188 65.128906 L 0.453125 65.128906 L 33.613281 38.679688 " fill-opacity="1" fill-rule="nonzero"/></g></g></g></g><g fill="#322f30" fill-opacity="1"><g transform="translate(116.413174, 229.335235)"><g><path d="M 26.734375 -9.109375 C 28.273438 -9.109375 29.765625 -9.335938 31.203125 -9.796875 C 32.648438 -10.265625 33.710938 -10.710938 34.390625 -11.140625 L 35.421875 -11.84375 L 39.703125 -3.265625 C 39.554688 -3.160156 39.359375 -3.019531 39.109375 -2.84375 C 38.859375 -2.664062 38.273438 -2.332031 37.359375 -1.84375 C 36.453125 -1.363281 35.476562 -0.941406 34.4375 -0.578125 C 33.40625 -0.222656 32.050781 0.09375 30.375 0.375 C 28.695312 0.65625 26.96875 0.796875 25.1875 0.796875 C 21.070312 0.796875 17.175781 -0.207031 13.5 -2.21875 C 9.820312 -4.238281 6.859375 -7.015625 4.609375 -10.546875 C 2.359375 -14.085938 1.234375 -17.910156 1.234375 -22.015625 C 1.234375 -25.128906 1.894531 -28.113281 3.21875 -30.96875 C 4.539062 -33.820312 6.296875 -36.265625 8.484375 -38.296875 C 10.679688 -40.335938 13.242188 -41.960938 16.171875 -43.171875 C 19.109375 -44.390625 22.113281 -45 25.1875 -45 C 28.039062 -45 30.671875 -44.660156 33.078125 -43.984375 C 35.492188 -43.304688 37.203125 -42.628906 38.203125 -41.953125 L 39.703125 -40.9375 L 35.421875 -32.359375 C 35.171875 -32.578125 34.796875 -32.835938 34.296875 -33.140625 C 33.796875 -33.441406 32.796875 -33.84375 31.296875 -34.34375 C 29.796875 -34.84375 28.273438 -35.09375 26.734375 -35.09375 C 24.304688 -35.09375 22.128906 -34.695312 20.203125 -33.90625 C 18.273438 -33.125 16.75 -32.085938 15.625 -30.796875 C 14.5 -29.515625 13.640625 -28.132812 13.046875 -26.65625 C 12.453125 -25.175781 12.15625 -23.664062 12.15625 -22.125 C 12.15625 -18.769531 13.414062 -15.757812 15.9375 -13.09375 C 18.457031 -10.4375 22.054688 -9.109375 26.734375 -9.109375 Z M 26.734375 -9.109375 "/></g></g></g><g fill="#322f30" fill-opacity="1"><g transform="translate(156.748662, 229.335235)"><g><path d="M 13.28125 -44.203125 L 13.28125 0 L 3.21875 0 L 3.21875 -44.203125 Z M 13.28125 -44.203125 "/></g></g></g><g fill="#322f30" fill-opacity="1"><g transform="translate(173.247116, 229.335235)"><g><path d="M 3.21875 -44.203125 L 19.015625 -44.203125 C 23.265625 -44.203125 26.726562 -43.066406 29.40625 -40.796875 C 32.09375 -38.523438 33.4375 -35.285156 33.4375 -31.078125 C 33.4375 -27.828125 32.625 -25.101562 31 -22.90625 C 29.375 -20.707031 27.164062 -19.160156 24.375 -18.265625 L 39.59375 0 L 26.796875 0 L 13.28125 -17.46875 L 13.28125 0 L 3.21875 0 Z M 13.28125 -24.59375 L 14.46875 -24.59375 C 15.394531 -24.59375 16.175781 -24.609375 16.8125 -24.640625 C 17.457031 -24.679688 18.191406 -24.804688 19.015625 -25.015625 C 19.835938 -25.234375 20.5 -25.535156 21 -25.921875 C 21.5 -26.316406 21.925781 -26.890625 22.28125 -27.640625 C 22.644531 -28.390625 22.828125 -29.300781 22.828125 -30.375 C 22.828125 -31.445312 22.644531 -32.359375 22.28125 -33.109375 C 21.925781 -33.859375 21.5 -34.429688 21 -34.828125 C 20.5 -35.222656 19.835938 -35.523438 19.015625 -35.734375 C 18.191406 -35.953125 17.457031 -36.078125 16.8125 -36.109375 C 16.175781 -36.148438 15.394531 -36.171875 14.46875 -36.171875 L 13.28125 -36.171875 Z M 13.28125 -24.59375 "/></g></g></g><g fill="#322f30" fill-opacity="1"><g transform="translate(211.600648, 229.335235)"><g><path d="M 1.234375 -22.125 C 1.234375 -28.519531 3.410156 -33.929688 7.765625 -38.359375 C 12.128906 -42.785156 17.378906 -45 23.515625 -45 C 29.703125 -45 34.953125 -42.789062 39.265625 -38.375 C 43.585938 -33.96875 45.75 -28.550781 45.75 -22.125 C 45.75 -15.664062 43.625 -10.226562 39.375 -5.8125 C 35.125 -1.40625 29.835938 0.796875 23.515625 0.796875 C 17.054688 0.796875 11.726562 -1.390625 7.53125 -5.765625 C 3.332031 -10.140625 1.234375 -15.59375 1.234375 -22.125 Z M 12.109375 -22.125 C 12.109375 -19.800781 12.460938 -17.679688 13.171875 -15.765625 C 13.890625 -13.859375 15.140625 -12.242188 16.921875 -10.921875 C 18.710938 -9.609375 20.910156 -8.953125 23.515625 -8.953125 C 27.265625 -8.953125 30.09375 -10.234375 32 -12.796875 C 33.914062 -15.367188 34.875 -18.476562 34.875 -22.125 C 34.875 -25.738281 33.898438 -28.835938 31.953125 -31.421875 C 30.015625 -34.015625 27.203125 -35.3125 23.515625 -35.3125 C 19.878906 -35.3125 17.066406 -34.015625 15.078125 -31.421875 C 13.097656 -28.835938 12.109375 -25.738281 12.109375 -22.125 Z M 12.109375 -22.125 "/></g></g></g><g fill="#322f30" fill-opacity="1"><g transform="translate(138.769536, 247.267673)"><g><path d="M 1.359375 0 L 1.359375 -9.34375 L 4.59375 -9.34375 C 5.550781 -9.34375 6.390625 -9.144531 7.109375 -8.75 C 7.828125 -8.351562 8.382812 -7.804688 8.78125 -7.109375 C 9.175781 -6.410156 9.375 -5.597656 9.375 -4.671875 C 9.375 -3.753906 9.175781 -2.941406 8.78125 -2.234375 C 8.382812 -1.535156 7.828125 -0.988281 7.109375 -0.59375 C 6.390625 -0.195312 5.550781 0 4.59375 0 Z M 2.53125 -1.125 L 4.59375 -1.125 C 5.300781 -1.125 5.921875 -1.269531 6.453125 -1.5625 C 6.992188 -1.863281 7.414062 -2.28125 7.71875 -2.8125 C 8.03125 -3.34375 8.1875 -3.960938 8.1875 -4.671875 C 8.1875 -5.378906 8.03125 -6 7.71875 -6.53125 C 7.414062 -7.0625 6.988281 -7.472656 6.4375 -7.765625 C 5.894531 -8.066406 5.257812 -8.21875 4.53125 -8.21875 L 2.53125 -8.21875 Z M 2.53125 -1.125 "/></g></g></g><g fill="#322f30" fill-opacity="1"><g transform="translate(153.482472, 247.267673)"><g><path d="M 1.359375 0 L 1.359375 -9.34375 L 7.03125 -9.34375 L 7.03125 -8.25 L 2.53125 -8.25 L 2.53125 -5.296875 L 6.703125 -5.296875 L 6.703125 -4.21875 L 2.53125 -4.21875 L 2.53125 -1.09375 L 7.171875 -1.09375 L 7.171875 0 Z M 1.359375 0 "/></g></g></g><g fill="#322f30" fill-opacity="1"><g transform="translate(166.088321, 247.267673)"><g><path d="M 1.359375 0 L 1.359375 -9.34375 L 4.53125 -9.34375 C 5.226562 -9.34375 5.835938 -9.210938 6.359375 -8.953125 C 6.878906 -8.691406 7.28125 -8.328125 7.5625 -7.859375 C 7.851562 -7.398438 8 -6.847656 8 -6.203125 C 8 -5.566406 7.851562 -5.015625 7.5625 -4.546875 C 7.28125 -4.078125 6.878906 -3.710938 6.359375 -3.453125 C 5.835938 -3.191406 5.226562 -3.0625 4.53125 -3.0625 L 2.53125 -3.0625 L 2.53125 0 Z M 2.53125 -4.15625 L 4.5 -4.15625 C 6.03125 -4.15625 6.796875 -4.832031 6.796875 -6.1875 C 6.796875 -7.539062 6.03125 -8.21875 4.5 -8.21875 L 2.53125 -8.21875 Z M 2.53125 -4.15625 "/></g></g></g><g fill="#322f30" fill-opacity="1"><g transform="translate(179.174273, 247.267673)"><g><path d="M 5.609375 0.171875 C 4.660156 0.171875 3.820312 -0.03125 3.09375 -0.4375 C 2.363281 -0.851562 1.796875 -1.425781 1.390625 -2.15625 C 0.984375 -2.882812 0.78125 -3.722656 0.78125 -4.671875 C 0.78125 -5.617188 0.984375 -6.453125 1.390625 -7.171875 C 1.796875 -7.898438 2.363281 -8.472656 3.09375 -8.890625 C 3.820312 -9.304688 4.660156 -9.515625 5.609375 -9.515625 C 6.554688 -9.515625 7.390625 -9.304688 8.109375 -8.890625 C 8.835938 -8.472656 9.410156 -7.898438 9.828125 -7.171875 C 10.242188 -6.453125 10.453125 -5.617188 10.453125 -4.671875 C 10.453125 -3.722656 10.242188 -2.882812 9.828125 -2.15625 C 9.410156 -1.425781 8.835938 -0.851562 8.109375 -0.4375 C 7.390625 -0.03125 6.554688 0.171875 5.609375 0.171875 Z M 1.96875 -4.671875 C 1.96875 -3.953125 2.117188 -3.316406 2.421875 -2.765625 C 2.734375 -2.210938 3.160156 -1.78125 3.703125 -1.46875 C 4.253906 -1.15625 4.890625 -1 5.609375 -1 C 6.328125 -1 6.957031 -1.15625 7.5 -1.46875 C 8.039062 -1.78125 8.460938 -2.210938 8.765625 -2.765625 C 9.078125 -3.316406 9.234375 -3.953125 9.234375 -4.671875 C 9.234375 -5.398438 9.078125 -6.035156 8.765625 -6.578125 C 8.460938 -7.128906 8.039062 -7.5625 7.5 -7.875 C 6.957031 -8.1875 6.328125 -8.34375 5.609375 -8.34375 C 4.890625 -8.34375 4.253906 -8.1875 3.703125 -7.875 C 3.160156 -7.5625 2.734375 -7.128906 2.421875 -6.578125 C 2.117188 -6.035156 1.96875 -5.398438 1.96875 -4.671875 Z M 5.03125 -10.265625 L 5.890625 -12.109375 L 7.09375 -12.109375 L 6.078125 -10.265625 Z M 5.03125 -10.265625 "/></g></g></g><g fill="#322f30" fill-opacity="1"><g transform="translate(194.940752, 247.267673)"><g><path d="M 4.46875 0.171875 C 3.71875 0.171875 3.066406 0.046875 2.515625 -0.203125 C 1.972656 -0.460938 1.550781 -0.820312 1.25 -1.28125 C 0.957031 -1.738281 0.804688 -2.269531 0.796875 -2.875 L 1.96875 -2.875 C 1.988281 -2.269531 2.226562 -1.796875 2.6875 -1.453125 C 3.144531 -1.117188 3.738281 -0.953125 4.46875 -0.953125 C 5.125 -0.953125 5.644531 -1.078125 6.03125 -1.328125 C 6.425781 -1.585938 6.625 -1.953125 6.625 -2.421875 C 6.625 -2.847656 6.4375 -3.191406 6.0625 -3.453125 C 5.6875 -3.722656 5.078125 -3.957031 4.234375 -4.15625 C 3.085938 -4.425781 2.242188 -4.773438 1.703125 -5.203125 C 1.171875 -5.640625 0.90625 -6.21875 0.90625 -6.9375 C 0.90625 -7.726562 1.203125 -8.351562 1.796875 -8.8125 C 2.398438 -9.28125 3.21875 -9.515625 4.25 -9.515625 C 5.289062 -9.515625 6.113281 -9.25 6.71875 -8.71875 C 7.332031 -8.195312 7.644531 -7.484375 7.65625 -6.578125 L 6.5 -6.578125 C 6.488281 -7.140625 6.28125 -7.582031 5.875 -7.90625 C 5.46875 -8.226562 4.925781 -8.390625 4.25 -8.390625 C 3.582031 -8.390625 3.054688 -8.257812 2.671875 -8 C 2.296875 -7.738281 2.109375 -7.382812 2.109375 -6.9375 C 2.109375 -6.550781 2.28125 -6.226562 2.625 -5.96875 C 2.976562 -5.707031 3.613281 -5.46875 4.53125 -5.25 C 5.71875 -4.945312 6.5625 -4.578125 7.0625 -4.140625 C 7.570312 -3.703125 7.828125 -3.140625 7.828125 -2.453125 C 7.828125 -1.640625 7.519531 -1 6.90625 -0.53125 C 6.300781 -0.0625 5.488281 0.171875 4.46875 0.171875 Z M 4.46875 0.171875 "/></g></g></g><g fill="#322f30" fill-opacity="1"><g transform="translate(208.133385, 247.267673)"><g><path d="M 1.359375 0 L 1.359375 -9.34375 L 2.53125 -9.34375 L 2.53125 0 Z M 1.359375 0 "/></g></g></g><g fill="#322f30" fill-opacity="1"><g transform="translate(216.591759, 247.267673)"><g><path d="M 3.609375 0 L 3.609375 -8.21875 L 0.453125 -8.21875 L 0.453125 -9.34375 L 7.9375 -9.34375 L 7.9375 -8.21875 L 4.796875 -8.21875 L 4.796875 0 Z M 3.609375 0 "/></g></g></g><g fill="#322f30" fill-opacity="1"><g transform="translate(229.557685, 247.267673)"><g><path d="M 5.609375 0.171875 C 4.660156 0.171875 3.820312 -0.03125 3.09375 -0.4375 C 2.363281 -0.851562 1.796875 -1.425781 1.390625 -2.15625 C 0.984375 -2.882812 0.78125 -3.722656 0.78125 -4.671875 C 0.78125 -5.617188 0.984375 -6.453125 1.390625 -7.171875 C 1.796875 -7.898438 2.363281 -8.472656 3.09375 -8.890625 C 3.820312 -9.304688 4.660156 -9.515625 5.609375 -9.515625 C 6.554688 -9.515625 7.390625 -9.304688 8.109375 -8.890625 C 8.835938 -8.472656 9.410156 -7.898438 9.828125 -7.171875 C 10.242188 -6.453125 10.453125 -5.617188 10.453125 -4.671875 C 10.453125 -3.722656 10.242188 -2.882812 9.828125 -2.15625 C 9.410156 -1.425781 8.835938 -0.851562 8.109375 -0.4375 C 7.390625 -0.03125 6.554688 0.171875 5.609375 0.171875 Z M 1.96875 -4.671875 C 1.96875 -3.953125 2.117188 -3.316406 2.421875 -2.765625 C 2.734375 -2.210938 3.160156 -1.78125 3.703125 -1.46875 C 4.253906 -1.15625 4.890625 -1 5.609375 -1 C 6.328125 -1 6.957031 -1.15625 7.5 -1.46875 C 8.039062 -1.78125 8.460938 -2.210938 8.765625 -2.765625 C 9.078125 -3.316406 9.234375 -3.953125 9.234375 -4.671875 C 9.234375 -5.398438 9.078125 -6.035156 8.765625 -6.578125 C 8.460938 -7.128906 8.039062 -7.5625 7.5 -7.875 C 6.957031 -8.1875 6.328125 -8.34375 5.609375 -8.34375 C 4.890625 -8.34375 4.253906 -8.1875 3.703125 -7.875 C 3.160156 -7.5625 2.734375 -7.128906 2.421875 -6.578125 C 2.117188 -6.035156 1.96875 -5.398438 1.96875 -4.671875 Z M 1.96875 -4.671875 "/></g></g></g></svg>